<?xml version="1.0" encoding="UTF-8" standalone="no"?>
<svg width="51px" height="51px" viewBox="0 0 51 51" version="1.1" xmlns="http://www.w3.org/2000/svg" xmlns:xlink="http://www.w3.org/1999/xlink" xmlns:sketch="http://www.bohemiancoding.com/sketch/ns">
    <!-- Generator: Sketch 3.0.2 (7799) - http://www.bohemiancoding.com/sketch -->
    <title>add 2</title>
    <description>Created with Sketch.</description>
    <defs></defs>
    <g id="Page-1" stroke="none" stroke-width="1" fill="none" fill-rule="evenodd" sketch:type="MSPage">
        <g id="buttons/elemente" sketch:type="MSArtboardGroup" transform="translate(-290.000000, -88.000000)">
            <g id="add-2" sketch:type="MSLayerGroup" transform="translate(315.500000, 113.500000) rotate(-45.000000) translate(-315.500000, -113.500000) translate(291.000000, 89.000000)">
                <path d="M24.5,49 C38.030977,49 49,38.030977 49,24.5 C49,10.969023 38.030977,5.68434189e-14 24.5,5.68434189e-14 C10.969023,5.68434189e-14 -4.26325641e-14,10.969023 -4.26325641e-14,24.5 C-4.26325641e-14,38.030977 10.969023,49 24.5,49 Z" id="selected-2" fill="#F1734B" sketch:type="MSShapeGroup"></path>
                <g id="--+---2" transform="translate(15.000000, 15.000000)" fill="#FFFFFF" sketch:type="MSShapeGroup">
                    <path d="M0,16.5419799 L16.72,0 L19,2.25572453 L2.58314118,19 L0,16.5419799 Z" id="-"></path>
                    <path d="M0,16.5419799 L16.72,0 L19,2.25572453 L2.58314118,19 L0,16.5419799 Z" id="--2" transform="translate(9.500000, 9.500000) rotate(-270.000000) translate(-9.500000, -9.500000) "></path>
                </g>
            </g>
        </g>
    </g>
</svg>