<?xml version="1.0" encoding="UTF-8" standalone="no"?>
<svg width="49px" height="49px" viewBox="0 0 49 49" version="1.1" xmlns="http://www.w3.org/2000/svg" xmlns:xlink="http://www.w3.org/1999/xlink" xmlns:sketch="http://www.bohemiancoding.com/sketch/ns">
    <!-- Generator: Sketch 3.0.2 (7799) - http://www.bohemiancoding.com/sketch -->
    <title>markdown</title>
    <description>Created with Sketch.</description>
    <defs></defs>
    <g id="Page-2" stroke="none" stroke-width="1" fill="none" fill-rule="evenodd" sketch:type="MSPage">
        <g id="Landscape" sketch:type="MSArtboardGroup" transform="translate(-463.000000, -269.000000)">
            <g id="markdown-3" sketch:type="MSLayerGroup" transform="translate(463.000000, 269.000000)">
                <g id="markdown" sketch:type="MSShapeGroup">
                    <path d="M24.5,49 C38.030977,49 49,38.030977 49,24.5 C49,10.969023 38.030977,0 24.5,0 C10.969023,0 0,10.969023 0,24.5 C0,38.030977 10.969023,49 24.5,49 Z" id="back" fill="#FFFFFF"></path>
                    <path d="M23.659,28.148 L23.659,27.084 C23.659,26.6359978 23.6916664,26.2346684 23.757,25.88 C23.8223337,25.5253316 23.9249993,25.1893349 24.065,24.872 C24.2050007,24.5546651 24.3916655,24.2466682 24.625,23.948 C24.8583345,23.6493318 25.1523316,23.3320017 25.507,22.996 L26.767,21.792 C27.1216685,21.4746651 27.4249988,21.120002 27.677,20.728 C27.9290013,20.335998 28.055,19.8600028 28.055,19.3 C28.055,18.5719964 27.8263356,17.9606691 27.369,17.466 C26.9116644,16.9713309 26.2630042,16.724 25.423,16.724 C24.9936645,16.724 24.6063351,16.8033325 24.261,16.962 C23.915665,17.1206675 23.6170013,17.335332 23.365,17.606 C23.1129988,17.876668 22.9216673,18.1893316 22.791,18.544 C22.6603327,18.8986684 22.5856668,19.2626648 22.567,19.636 L19.123,19.328 C19.2350006,18.4319955 19.4729982,17.6340035 19.837,16.934 C20.2010018,16.2339965 20.6723305,15.6413358 21.251,15.156 C21.8296696,14.6706642 22.4923296,14.3020013 23.239,14.05 C23.9856704,13.7979987 24.7883291,13.672 25.647,13.672 C26.4496707,13.672 27.2103298,13.7886655 27.929,14.022 C28.6476703,14.2553345 29.2823306,14.6006644 29.833,15.058 C30.3836694,15.5153356 30.8176651,16.0799966 31.135,16.752 C31.4523349,17.4240034 31.611,18.1986623 31.611,19.076 C31.611,19.6733363 31.5456673,20.1959978 31.415,20.644 C31.2843327,21.0920022 31.0976679,21.5026648 30.855,21.876 C30.6123321,22.2493352 30.3183351,22.6086649 29.973,22.954 C29.627665,23.2993351 29.2403355,23.6586648 28.811,24.032 C28.4376648,24.3493349 28.1343345,24.6293321 27.901,24.872 C27.6676655,25.1146679 27.4810007,25.3573321 27.341,25.6 C27.2009993,25.8426679 27.1030003,26.1039986 27.047,26.384 C26.9909997,26.6640014 26.963,27.0093313 26.963,27.42 L26.963,28.148 L23.659,28.148 Z M23.099,32.04 C23.099,31.4426637 23.3183312,30.9293355 23.757,30.5 C24.1956689,30.0706645 24.7229969,29.856 25.339,29.856 C25.9363363,29.856 26.4589978,30.0613313 26.907,30.472 C27.3550023,30.8826687 27.579,31.3866637 27.579,31.984 C27.579,32.5813363 27.3596689,33.0946645 26.921,33.524 C26.4823312,33.9533355 25.9550031,34.168 25.339,34.168 C25.0403319,34.168 24.755668,34.1120006 24.485,34 C24.214332,33.8879994 23.9763344,33.7386676 23.771,33.552 C23.5656657,33.3653324 23.402334,33.1413346 23.281,32.88 C23.1596661,32.6186654 23.099,32.3386682 23.099,32.04 L23.099,32.04 Z" id="?" fill="#F25627"></path>
                </g>
            </g>
        </g>
    </g>
</svg>