<?xml version="1.0" encoding="UTF-8" standalone="no"?>
<svg width="127px" height="127px" viewBox="0 0 127 127" version="1.1" xmlns="http://www.w3.org/2000/svg" xmlns:xlink="http://www.w3.org/1999/xlink" xmlns:sketch="http://www.bohemiancoding.com/sketch/ns">
    <!-- Generator: Sketch 3.0.2 (7799) - http://www.bohemiancoding.com/sketch -->
    <title>nemex_icon</title>
    <description>Created with Sketch.</description>
    <defs></defs>
    <g id="Page-1" stroke="none" stroke-width="1" fill="none" fill-rule="evenodd" sketch:type="MSPage">
        <g id="nemex_icon" sketch:type="MSLayerGroup" transform="translate(1.000000, 1.000000)" stroke="#FFFFFF" stroke-width="2">
            <circle id="Oval-3" sketch:type="MSShapeGroup" cx="62.5" cy="62.5" r="62.5"></circle>
            <g id="Klammer" transform="translate(52.000000, 18.000000)" sketch:type="MSShapeGroup">
                <g>
                    <path d="M22,46.6310059 L22,-0.0728850463 C18.3548328,-0.0728850463 13.1290355,4.30006359 11,8.4000022 C8.5699471,3.76080909 1.66545868,-1.27897692e-13 2.48689958e-14,-1.27897692e-13 L-1.93309425e-15,44.8875002 L9.76996262e-16,91.247885 C3.64516716,91.247885 7.24228803,86.3668619 8.03474342,80.3431611 L11,57.8033203 L13.9623203,80.2709578 C14.7563289,86.293094 20.3345413,91.175 22,91.175 L22,63.6523022 L22,46.6310059 Z" id="Path-9"></path>
                    <path d="M12.1,44.3902436 L21.4107143,37.8" id="Line-7" stroke-linecap="square" fill="#D8D8D8"></path>
                    <path d="M11,24.4146339 L11,44.3902436" id="Line-6" stroke-linecap="square" fill="#D8D8D8"></path>
                    <path d="M11,65.4756095 L11,52.1585368" id="Line-9" stroke-linecap="square" fill="#D8D8D8"></path>
                    <path d="M11,7.2902439 L11,14.4268295" id="Line-8" stroke-linecap="square" fill="#D8D8D8"></path>
                    <ellipse id="Oval-12" cx="11" cy="19.6" rx="4.125" ry="4.2"></ellipse>
                    <ellipse id="Oval-11" cx="11" cy="47.6" rx="2.75" ry="2.8"></ellipse>
                </g>
            </g>
        </g>
    </g>
</svg>