<?xml version="1.0" encoding="UTF-8" standalone="no"?>
<svg width="14px" height="18px" viewBox="0 0 14 18" version="1.1" xmlns="http://www.w3.org/2000/svg" xmlns:xlink="http://www.w3.org/1999/xlink" xmlns:sketch="http://www.bohemiancoding.com/sketch/ns">
    <!-- Generator: Sketch 3.1 (8751) - http://www.bohemiancoding.com/sketch -->
    <title>shared</title>
    <desc>Created with Sketch.</desc>
    <defs></defs>
    <g id="Page-1" stroke="none" stroke-width="1" fill="none" fill-rule="evenodd" sketch:type="MSPage">
        <g id="Artboard-1" sketch:type="MSArtboardGroup" transform="translate(-112.000000, -4.000000)" fill="#FFFFFF">
            <g id="shared" sketch:type="MSLayerGroup" transform="translate(112.000000, 4.000000)">
                <path d="M1.90909091,5.58764647 L1.90909091,5.35185859 C1.90909091,2.39026102 4.18836855,0 7,0 C9.80591035,0 12.0909091,2.39610871 12.0909091,5.35185859 L12.0909091,8.30769231 L14,8.30769231 L14,18 L0,18 L0,8.30769231 L1.90909091,8.30769231 L1.90909091,8.2997714 L3.81818182,8.2997714 L3.81818182,8.30769231 L10.1818182,8.30769231 L10.1818182,8.30769231 L10.1818182,5.41803118 C10.1818182,3.57278813 8.75369397,2.07692308 7,2.07692308 C5.24273034,2.07692308 3.81818182,3.56750429 3.81818182,5.41803118 L3.81818182,5.58764647 L1.90909091,5.58764647 Z" id="Rectangle-2" sketch:type="MSShapeGroup"></path>
            </g>
        </g>
    </g>
</svg>